<svg width="34" height="30" viewBox="0 0 34 30" fill="none" xmlns="http://www.w3.org/2000/svg">
<path fill-rule="evenodd" clip-rule="evenodd" d="M2.57661 3C1.15359 3 0 4.15359 0 5.57661V10.0525C0.535759 9.76383 1.14875 9.6 1.8 9.6H10H18.4839C18.6933 9.6 18.8863 9.48647 18.988 9.30342L20.7363 10.2747C20.2818 11.0927 19.4197 11.6 18.4839 11.6H10H1.8C0.805887 11.6 0 12.4059 0 13.4V23.4234C0 24.8464 1.15359 26 2.57661 26H31.4234C32.8464 26 34 24.8464 34 23.4234V10.5766C34 9.15359 32.8464 8 31.4234 8H26L24 8L23.5161 8C22.5804 8 21.7182 8.50731 21.2637 9.3253L20.7363 10.2747L18.988 9.30341L19.5154 8.35402C20.3226 6.90109 21.854 5.99999 23.5161 6L24 6L26 6H31.4234C32.3789 6 33.2661 6.29285 34 6.79369V5.57661C34 4.15359 32.8464 3 31.4234 3H2.57661Z" fill="#BEBEF1"/>
</svg>
